<svg xmlns="http://www.w3.org/2000/svg" width="1000" height="400" viewBox="0 0 1000 400"><rect width="100%" height="100%" fill="#DDDDDD"/><path fill="#999999" d="M240.9 231.74h15.34v10.92h-47.2v-10.92h17.29v-49.73q0-2.95.18-6.08l-12.28 10.27q-1.06.82-2.09 1.03-1.03.21-1.95.03-.91-.18-1.62-.62-.71-.44-1.06-.97l-4.6-6.32 26.01-22.12h11.98v74.51ZM329.11 200q0 11.15-2.39 19.38-2.39 8.23-6.61 13.6-4.22 5.37-9.97 8-5.75 2.62-12.42 2.62t-12.36-2.62q-5.7-2.63-9.88-8-4.19-5.37-6.55-13.6-2.36-8.23-2.36-19.38 0-11.21 2.36-19.41t6.55-13.57q4.18-5.37 9.88-7.99 5.69-2.63 12.36-2.63 6.67 0 12.42 2.63 5.75 2.62 9.97 7.99 4.22 5.37 6.61 13.57 2.39 8.2 2.39 19.41Zm-15.05 0q0-9.26-1.36-15.34-1.35-6.07-3.62-9.67-2.28-3.6-5.23-5.05-2.95-1.44-6.13-1.44-3.13 0-6.05 1.44-2.92 1.45-5.16 5.05-2.24 3.6-3.57 9.67-1.33 6.08-1.33 15.34 0 9.27 1.33 15.34 1.33 6.08 3.57 9.68 2.24 3.6 5.16 5.04 2.92 1.45 6.05 1.45 3.18 0 6.13-1.45 2.95-1.44 5.23-5.04 2.27-3.6 3.62-9.68 1.36-6.07 1.36-15.34Zm83.49 0q0 11.15-2.39 19.38-2.39 8.23-6.61 13.6-4.22 5.37-9.97 8-5.75 2.62-12.42 2.62t-12.36-2.62q-5.7-2.63-9.88-8-4.19-5.37-6.55-13.6-2.36-8.23-2.36-19.38 0-11.21 2.36-19.41t6.55-13.57q4.18-5.37 9.88-7.99 5.69-2.63 12.36-2.63 6.67 0 12.42 2.63 5.75 2.62 9.97 7.99 4.22 5.37 6.61 13.57 2.39 8.2 2.39 19.41Zm-15.05 0q0-9.26-1.36-15.34-1.35-6.07-3.62-9.67-2.28-3.6-5.23-5.05-2.95-1.44-6.13-1.44-3.13 0-6.05 1.44-2.92 1.45-5.16 5.05-2.24 3.6-3.57 9.67-1.33 6.08-1.33 15.34 0 9.27 1.33 15.34 1.33 6.08 3.57 9.68 2.24 3.6 5.16 5.04 2.92 1.45 6.05 1.45 3.18 0 6.13-1.45 2.95-1.44 5.23-5.04 2.27-3.6 3.62-9.68 1.36-6.07 1.36-15.34Zm83.49 0q0 11.15-2.39 19.38-2.39 8.23-6.61 13.6-4.22 5.37-9.97 8-5.75 2.62-12.42 2.62t-12.36-2.62q-5.7-2.63-9.88-8-4.19-5.37-6.55-13.6-2.36-8.23-2.36-19.38 0-11.21 2.36-19.41t6.55-13.57q4.18-5.37 9.88-7.99 5.69-2.63 12.36-2.63 6.67 0 12.42 2.63 5.75 2.62 9.97 7.99 4.22 5.37 6.61 13.57 2.39 8.2 2.39 19.41Zm-15.05 0q0-9.26-1.36-15.34-1.35-6.07-3.62-9.67-2.28-3.6-5.23-5.05-2.95-1.44-6.13-1.44-3.13 0-6.05 1.44-2.92 1.45-5.16 5.05-2.24 3.6-3.57 9.67-1.33 6.08-1.33 15.34 0 9.27 1.33 15.34 1.33 6.08 3.57 9.68 2.24 3.6 5.16 5.04 2.92 1.45 6.05 1.45 3.18 0 6.13-1.45 2.95-1.44 5.23-5.04 2.27-3.6 3.62-9.68 1.36-6.07 1.36-15.34Zm108.74 23.13-7.73 7.61-20-20-20.18 20.12-7.73-7.61 20.18-20.24-19.23-19.23 7.67-7.67 19.23 19.23 19.12-19.11 7.78 7.67-19.17 19.17 20.06 20.06Zm51.09-12.63h25.96v-27.9q0-3.96.53-8.73l-26.49 36.63Zm38.65 0h10.74v8.44q0 1.18-.77 2.04-.77.85-2.18.85h-7.79v20.83h-12.69v-20.83h-35.99q-1.47 0-2.59-.91-1.12-.92-1.42-2.27l-1.53-7.38 40.41-53.98h13.81v53.21Zm79.23-10.5q0 11.15-2.39 19.38-2.38 8.23-6.6 13.6-4.22 5.37-9.97 8-5.76 2.62-12.42 2.62-6.67 0-12.36-2.62-5.7-2.63-9.89-8t-6.55-13.6q-2.36-8.23-2.36-19.38 0-11.21 2.36-19.41t6.55-13.57q4.19-5.37 9.89-7.99 5.69-2.63 12.36-2.63 6.66 0 12.42 2.63 5.75 2.62 9.97 7.99 4.22 5.37 6.6 13.57 2.39 8.2 2.39 19.41Zm-15.04 0q0-9.26-1.36-15.34-1.35-6.07-3.63-9.67-2.27-3.6-5.22-5.05-2.95-1.44-6.13-1.44-3.13 0-6.05 1.44-2.92 1.45-5.16 5.05-2.25 3.6-3.57 9.67-1.33 6.08-1.33 15.34 0 9.27 1.33 15.34 1.32 6.08 3.57 9.68 2.24 3.6 5.16 5.04 2.92 1.45 6.05 1.45 3.18 0 6.13-1.45 2.95-1.44 5.22-5.04 2.28-3.6 3.63-9.68 1.36-6.07 1.36-15.34Zm83.48 0q0 11.15-2.39 19.38-2.38 8.23-6.6 13.6-4.22 5.37-9.97 8-5.76 2.62-12.42 2.62-6.67 0-12.36-2.62-5.7-2.63-9.89-8t-6.55-13.6q-2.36-8.23-2.36-19.38 0-11.21 2.36-19.41t6.55-13.57q4.19-5.37 9.89-7.99 5.69-2.63 12.36-2.63 6.66 0 12.42 2.63 5.75 2.62 9.97 7.99 4.22 5.37 6.6 13.57 2.39 8.2 2.39 19.41Zm-15.04 0q0-9.26-1.36-15.34-1.35-6.07-3.63-9.67-2.27-3.6-5.22-5.05-2.95-1.44-6.13-1.44-3.13 0-6.05 1.44-2.92 1.45-5.16 5.05-2.25 3.6-3.57 9.67-1.33 6.08-1.33 15.34 0 9.27 1.33 15.34 1.32 6.08 3.57 9.68 2.24 3.6 5.16 5.04 2.92 1.45 6.05 1.45 3.18 0 6.13-1.45 2.95-1.44 5.22-5.04 2.28-3.6 3.63-9.68 1.36-6.07 1.36-15.34Z"/></svg>