<svg xmlns="http://www.w3.org/2000/svg" width="330" height="450" viewBox="0 0 330 450"><rect width="100%" height="100%" fill="#DDDDDD"/><path fill="#999999" d="m70.045 218.465-2.86-.51q.33-2.28 1.28-4.01t2.36-2.88q1.42-1.16 3.26-1.74 1.84-.58 3.95-.58 2.2 0 3.97.62 1.77.63 3.03 1.74 1.25 1.11 1.92 2.61.67 1.49.67 3.23 0 1.52-.34 2.67-.34 1.16-.98 2.02-.64.86-1.58 1.45-.95.59-2.14.99 2.86.9 4.27 2.75 1.41 1.85 1.41 4.64 0 2.38-.88 4.2-.88 1.83-2.38 3.07-1.49 1.25-3.46 1.88-1.97.64-4.17.64-2.4 0-4.18-.55-1.78-.55-3.1-1.63-1.32-1.07-2.25-2.64-.92-1.56-1.58-3.6l2.4-.99q.94-.4 1.77-.21.82.18 1.2.89.39.77.87 1.52.47.74 1.13 1.33.66.58 1.55.94.89.37 2.12.37 1.39 0 2.42-.45 1.04-.46 1.73-1.18.69-.73 1.03-1.62.35-.89.35-1.79 0-1.15-.25-2.08-.24-.94-1.01-1.6-.77-.66-2.21-1.03t-3.86-.37v-3.88q2-.02 3.32-.37 1.32-.35 2.1-.98t1.09-1.51q.31-.88.31-1.93 0-2.25-1.25-3.41-1.26-1.17-3.35-1.17-.97 0-1.78.28-.81.27-1.46.77-.65.49-1.09 1.15-.44.66-.66 1.45-.38 1.02-.98 1.35-.61.33-1.71.15Zm25.52 0-2.86-.51q.33-2.28 1.28-4.01t2.36-2.88q1.42-1.16 3.26-1.74 1.84-.58 3.95-.58 2.2 0 3.97.62 1.77.63 3.03 1.74 1.25 1.11 1.92 2.61.67 1.49.67 3.23 0 1.52-.34 2.67-.34 1.16-.98 2.02-.64.86-1.58 1.45-.95.59-2.14.99 2.86.9 4.27 2.75 1.41 1.85 1.41 4.64 0 2.38-.88 4.2-.88 1.83-2.38 3.07-1.49 1.25-3.46 1.88-1.97.64-4.17.64-2.4 0-4.18-.55-1.78-.55-3.1-1.63-1.32-1.07-2.25-2.64-.92-1.56-1.58-3.6l2.4-.99q.94-.4 1.77-.21.82.18 1.2.89.39.77.87 1.52.47.74 1.13 1.33.66.58 1.55.94.89.37 2.12.37 1.39 0 2.42-.45 1.04-.46 1.73-1.18.69-.73 1.03-1.62.35-.89.35-1.79 0-1.15-.25-2.08-.24-.94-1.01-1.6-.77-.66-2.21-1.03t-3.86-.37v-3.88q2-.02 3.32-.37 1.32-.35 2.1-.98t1.09-1.51q.31-.88.31-1.93 0-2.25-1.25-3.41-1.26-1.17-3.35-1.17-.97 0-1.78.28-.81.27-1.46.77-.65.49-1.09 1.15-.44.66-.66 1.45-.38 1.02-.98 1.35-.61.33-1.71.15Zm44.71 6.53q0 4.16-.89 7.23-.89 3.07-2.47 5.07-1.57 2-3.72 2.98-2.14.98-4.63.98-2.48 0-4.61-.98-2.12-.98-3.68-2.98t-2.44-5.07q-.88-3.07-.88-7.23 0-4.18.88-7.23.88-3.06 2.44-5.06 1.56-2.01 3.68-2.98 2.13-.98 4.61-.98 2.49 0 4.63.98 2.15.97 3.72 2.98 1.58 2 2.47 5.06.89 3.05.89 7.23Zm-5.61 0q0-3.45-.51-5.72-.5-2.26-1.35-3.6-.85-1.35-1.95-1.88-1.1-.54-2.29-.54-1.16 0-2.25.54-1.09.53-1.93 1.88-.83 1.34-1.33 3.6-.49 2.27-.49 5.72 0 3.46.49 5.72.5 2.27 1.33 3.61.84 1.34 1.93 1.88 1.09.54 2.25.54 1.19 0 2.29-.54t1.95-1.88q.85-1.34 1.35-3.61.51-2.26.51-5.72Zm40.54 8.63-2.88 2.84-7.46-7.46-7.52 7.5-2.88-2.84 7.52-7.54-7.17-7.18 2.86-2.86 7.17 7.18 7.13-7.13 2.9 2.86-7.15 7.15 7.48 7.48Zm19.06-4.71h9.68v-10.41q0-1.47.19-3.25l-9.87 13.66Zm14.41 0h4v3.15q0 .44-.29.76-.28.31-.81.31h-2.9v7.77h-4.73v-7.77h-13.42q-.55 0-.97-.34-.42-.34-.53-.84l-.57-2.75 15.07-20.13h5.15v19.84Zm15.18-14.89-1.13 6.62q1.06-.22 2.03-.32.97-.1 1.87-.1 2.51 0 4.42.75 1.91.75 3.21 2.07 1.3 1.32 1.96 3.09.66 1.77.66 3.81 0 2.53-.89 4.62-.89 2.09-2.48 3.58-1.58 1.48-3.75 2.3-2.16.81-4.72.81-1.49 0-2.83-.31-1.35-.3-2.52-.82-1.18-.52-2.18-1.19-1-.67-1.79-1.42l1.67-2.31q.53-.75 1.38-.75.55 0 1.13.36.57.35 1.3.77.74.41 1.74.77 1 .35 2.41.35 1.5 0 2.64-.49 1.15-.48 1.9-1.35.76-.87 1.15-2.07.38-1.2.38-2.6 0-2.6-1.5-4.06-1.51-1.47-4.46-1.47-2.26 0-4.64.84l-3.39-.97 2.64-15.44h15.71v2.31q0 1.16-.73 1.89-.72.73-2.46.73h-8.73Zm39.88 10.97q0 4.16-.89 7.23-.89 3.07-2.46 5.07-1.58 2-3.72 2.98-2.15.98-4.63.98-2.49 0-4.61-.98t-3.69-2.98q-1.56-2-2.44-5.07-.88-3.07-.88-7.23 0-4.18.88-7.23.88-3.06 2.44-5.06 1.57-2.01 3.69-2.98 2.12-.98 4.61-.98 2.48 0 4.63.98 2.14.97 3.72 2.98 1.57 2 2.46 5.06.89 3.05.89 7.23Zm-5.61 0q0-3.45-.5-5.72-.51-2.26-1.36-3.6-.84-1.35-1.94-1.88-1.1-.54-2.29-.54-1.17 0-2.26.54-1.09.53-1.92 1.88-.84 1.34-1.33 3.6-.5 2.27-.5 5.72 0 3.46.5 5.72.49 2.27 1.33 3.61.83 1.34 1.92 1.88 1.09.54 2.26.54 1.19 0 2.29-.54t1.94-1.88q.85-1.34 1.36-3.61.5-2.26.5-5.72Z"/></svg>